<svg id="Layer_1" enable-background="new 0 0 512.002 512.002" height="512" viewBox="0 0 512.002 512.002" width="512" xmlns="http://www.w3.org/2000/svg"><g><g><path d="m429.198 169.768 17.371-17.371c7.798-7.798 7.798-20.486 0-28.284l-17.679-17.677c-3.77-3.77-8.792-5.846-14.142-5.846s-10.372 2.076-14.142 5.846l-17.371 17.37c-26.721-19.683-58.138-33.333-92.234-38.94v-24.866h5.001c11.027 0 19.999-8.972 19.999-20v-20c0-11.028-8.972-20-19.999-20h-80.001c-11.028 0-20 8.972-20 20v20c0 11.028 8.972 20 20 20h5v24.866c-34.096 5.606-65.513 19.257-92.234 38.939l-17.37-17.37c-3.77-3.77-8.792-5.845-14.142-5.845-.001 0 0 0-.001 0-5.35 0-10.372 2.076-14.142 5.846l-17.677 17.677c-7.799 7.797-7.799 20.485-.001 28.284l17.37 17.371c-26.26 35.651-41.803 79.659-41.803 127.234 0 118.552 96.448 215 215 215s215-96.449 215-215c0-47.575-15.543-91.583-41.803-127.234zm-14.451-49.19 17.679 17.677-15.894 15.895c-5.548-6.227-11.45-12.13-17.678-17.678zm-198.748-100.578h80.002l.001 20h-80.001zm25.002 40h30v22.533c-4.957-.343-9.957-.532-15-.532s-10.043.188-15 .532zm-161.424 78.255 17.677-17.678 15.894 15.894c-6.227 5.548-12.13 11.45-17.677 17.677zm176.424 353.747c-107.523 0-195-87.477-195-195s87.477-195 195-195 195 87.477 195 195-87.476 195-195 195z"/><path d="m256.001 122.002c-30.035 0-59.68 7.751-85.729 22.417-4.813 2.709-6.519 8.807-3.809 13.62s8.811 6.518 13.619 3.808c20.165-11.352 42.77-18.024 65.918-19.521v13.748c0 5.523 4.478 10 10 10s10-4.477 10-10v-13.74c20.951 1.341 40.78 6.86 58.666 15.736l-1.25 2.165c-2.762 4.783-1.123 10.899 3.66 13.66 1.575.91 3.294 1.342 4.99 1.342 3.456 0 6.818-1.794 8.67-5.002l1.235-2.14c16.969 11.354 31.581 25.966 42.936 42.935l-2.14 1.235c-4.783 2.762-6.422 8.877-3.66 13.661 1.852 3.208 5.213 5.002 8.67 5.002 1.696 0 3.415-.433 4.99-1.341l2.165-1.25c8.875 17.885 14.395 37.715 15.736 58.665h-13.74c-5.522 0-10 4.477-10 10s4.478 10 10 10h13.74c-1.341 20.951-6.86 40.78-15.736 58.666l-2.165-1.25c-4.785-2.761-10.897-1.123-13.66 3.66-2.762 4.783-1.123 10.899 3.66 13.66l2.14 1.236c-11.354 16.97-25.966 31.581-42.936 42.936l-1.236-2.14c-2.762-4.783-8.878-6.422-13.66-3.66-4.783 2.761-6.422 8.877-3.66 13.66l1.25 2.165c-17.885 8.876-37.715 14.395-58.666 15.736v-13.74c0-5.523-4.478-10-10-10s-10 4.477-10 10v13.74c-20.951-1.341-40.78-6.86-58.665-15.736l1.25-2.165c2.762-4.783 1.123-10.899-3.66-13.661-4.784-2.763-10.898-1.123-13.66 3.66l-1.236 2.141c-16.969-11.355-31.581-25.966-42.936-42.936l2.141-1.236c4.783-2.761 6.422-8.877 3.66-13.66s-8.876-6.421-13.66-3.66l-2.166 1.25c-8.876-17.885-14.395-37.715-15.736-58.666h13.74c5.522 0 10-4.477 10-10s-4.478-10-10-10h-13.748c1.496-23.15 8.166-45.753 19.517-65.911 2.71-4.813 1.005-10.91-3.808-13.62-4.809-2.708-10.91-1.005-13.62 3.808-14.663 26.042-22.413 55.684-22.413 85.723 0 96.496 78.505 175 175 175s175-78.504 175-175-78.503-175-174.998-175z"/><path d="m209.335 217.002c-18.381 0-33.334 14.953-33.334 33.333s14.953 33.333 33.334 33.333c18.38 0 33.333-14.953 33.333-33.333 0-18.379-14.953-33.333-33.333-33.333zm0 46.667c-7.353 0-13.334-5.981-13.334-13.333s5.981-13.333 13.334-13.333c7.352 0 13.333 5.981 13.333 13.333s-5.981 13.333-13.333 13.333z"/><path d="m269.334 343.668c0 18.38 14.953 33.333 33.334 33.333 18.38 0 33.333-14.953 33.333-33.333s-14.953-33.333-33.333-33.333c-18.381 0-33.334 14.953-33.334 33.333zm46.667 0c0 7.352-5.981 13.333-13.333 13.333-7.353 0-13.334-5.981-13.334-13.333s5.981-13.333 13.334-13.333c7.352 0 13.333 5.981 13.333 13.333z"/><path d="m295.597 243.264-93.333 93.333c-3.905 3.905-3.905 10.237 0 14.143 1.953 1.953 4.512 2.929 7.071 2.929s5.118-.976 7.071-2.929l93.333-93.333c3.905-3.905 3.905-10.237 0-14.143-3.906-3.905-10.236-3.905-14.142 0z"/><path d="m139.328 190.331c2.415 0 4.838-.869 6.758-2.629 4.071-3.732 4.347-10.058.614-14.129-3.73-4.07-10.058-4.347-14.128-.614l-.006.005c-4.071 3.732-4.344 10.055-.611 14.126 1.972 2.15 4.667 3.241 7.373 3.241z"/></g></g></svg>